# xmcd
#
# Track frame offsets:
#	150
#	16958
#	34526
#	51386
#	69912
#	90359
#	106573
#	126906
#	145388
#	161197
#	175929
#	193281
#	207860
#	227173
#
# Disc length: 3459 seconds
#
# Revision: 0
# Processed by: cddbd v1.5.1PL2 Copyright (c) Steve Scherf et al.
# Submitted via: dBpowerAMP V4.0
#
DISCID=bd0d810e
DTITLE=G. Love - Lemonade
DYEAR=1900
DGENRE=
TTITLE0=Ride
TTITLE1=Ain't that Right
TTITLE2=Hot Cookin'
TTITLE3=Can't Go Back to Jersey
TTITLE4=Missing My Baby
TTITLE5=Holla!
TTITLE6=Banger
TTITLE7=Thanks and Praise
TTITLE8=Let the Music Play
TTITLE9=Free
TTITLE10=Beautiful
TTITLE11=Rainbow
TTITLE12=Breakin up
TTITLE13=Still Hangin' Around
EXTD=
EXTT0=
EXTT1=
EXTT2=
EXTT3=
EXTT4=
EXTT5=
EXTT6=
EXTT7=
EXTT8=
EXTT9=
EXTT10=
EXTT11=
EXTT12=
EXTT13=
PLAYORDER=
